<?xml version="1.0" encoding="UTF-8"?>
<svg id="Layer_1" xmlns="http://www.w3.org/2000/svg" version="1.1" viewBox="0 0 2009 356">
  <!-- Generator: Adobe Illustrator 29.7.1, SVG Export Plug-In . SVG Version: 2.1.1 Build 8)  -->
  <g>
    <path d="M429.07,236.92l46.18-148.58h45.63l-67.09,193.94h-50.52l-66.82-193.94h46.72l45.9,148.58Z" fill="#374aa9"/>
    <path d="M520.61,211.93c0-23.72,6.43-42.28,19.29-55.68,12.86-13.4,30.51-20.1,52.97-20.1s40.15,6.52,52.56,19.56c12.4,13.04,18.61,31.42,18.61,55.14s-6.38,42.06-19.15,55.55c-12.77,13.49-30.47,20.24-53.1,20.24s-40.16-6.56-52.56-19.69c-12.41-13.13-18.61-31.46-18.61-55ZM561.63,211.39c0,13.22,2.44,23.63,7.33,31.24s12.58,11.41,23.09,11.41,18.51-3.85,23.5-11.54c4.98-7.7,7.47-18.15,7.47-31.37s-2.49-23.58-7.47-31.1c-4.98-7.51-12.81-11.27-23.5-11.27s-18.2,3.76-23.09,11.27c-4.89,7.52-7.33,17.97-7.33,31.37Z" fill="#374aa9"/>
    <path d="M690.65,235.29v-94.8h40.2v87.73c0,8.88,1.54,15.21,4.62,19.01,3.08,3.8,7.97,5.7,14.67,5.7,8.33,0,15.39-2.89,21.19-8.69,2.72-2.72,4.8-5.61,6.25-8.69,1.45-3.08,2.17-6.88,2.17-11.41v-83.66h40.2v141.79h-39.39v-18.2c-11.77,15.03-26.53,22.54-44.27,22.54-15.21,0-26.62-4.43-34.23-13.31-7.61-8.87-11.41-21.55-11.41-38.03Z" fill="#374aa9"/>
    <path d="M847.65,212.2c0-23.54,6.25-42.1,18.74-55.68,12.5-13.58,29.7-20.37,51.61-20.37,18.29,0,32.64,4.48,43.05,13.45,10.41,8.96,16.79,21.51,19.15,37.62l-38.3,4.62c-1.27-7.24-3.71-12.9-7.33-16.98-3.62-4.07-9.15-6.11-16.57-6.11-10.5,0-18.02,3.85-22.55,11.54-4.53,7.7-6.79,17.97-6.79,30.83s2.26,23.22,6.79,31.1c4.52,7.88,12.04,11.82,22.55,11.82,7.97,0,13.9-2.13,17.79-6.38,3.89-4.25,6.38-10.19,7.47-17.79h38.57c-2.17,18.11-8.69,32.1-19.56,41.97-10.87,9.87-25.99,14.8-45.36,14.8-22.27,0-39.39-6.65-51.34-19.96-11.95-13.31-17.93-31.46-17.93-54.46Z" fill="#374aa9"/>
    <path d="M1006.82,88.34h40.2v69.26c7.06-8.15,14.17-13.76,21.32-16.84,7.15-3.08,14.71-4.62,22.68-4.62,15.57,0,27.34,4.39,35.31,13.17,7.97,8.79,11.95,21.42,11.95,37.89v95.07h-40.47v-87.46c0-9.05-1.68-15.53-5.02-19.42-3.35-3.89-8.47-5.84-15.35-5.84-3.98,0-7.92.73-11.82,2.17-3.9,1.45-7.29,3.71-10.19,6.79-2.72,2.72-4.8,5.62-6.25,8.69-1.45,3.08-2.17,7.06-2.17,11.95v83.12h-40.2V88.34Z" fill="#374aa9"/>
    <path d="M1287.4,239.36h-72.8l-14.67,42.92h-42.92l69.54-193.94h50.52l68.99,193.94h-44.27l-14.4-42.92ZM1250.73,125.82l-25.8,79.04h51.88l-26.08-79.04Z" fill="#1a2a3a"/>
    <path d="M1405.29,282.28h-39.11V88.34h40.2v67.63c10.5-13.22,24.54-19.83,42.1-19.83,19.19,0,33.68,6.61,43.46,19.83,9.78,13.22,14.67,31.15,14.67,53.78s-5.39,42.47-16.16,56.23c-10.78,13.76-25.58,20.64-44.41,20.64-8.15,0-15.71-1.68-22.68-5.02-6.97-3.35-13-8.65-18.06-15.89v16.57ZM1406.38,207.58v6.79c0,13.4,2.58,23.36,7.74,29.88,5.16,6.52,12.45,9.78,21.87,9.78s16.25-3.3,21.59-9.91c5.34-6.61,8.01-17.61,8.01-33s-2.81-26.53-8.42-32.87c-5.61-6.34-12.41-9.51-20.37-9.51-9.42,0-16.84,3.44-22.27,10.32-5.43,6.88-8.15,16.39-8.15,28.52Z" fill="#1a2a3a"/>
    <path d="M1529.96,211.93c0-23.72,6.43-42.28,19.29-55.68,12.86-13.4,30.51-20.1,52.97-20.1s40.15,6.52,52.56,19.56c12.4,13.04,18.61,31.42,18.61,55.14s-6.38,42.06-19.15,55.55c-12.77,13.49-30.47,20.24-53.1,20.24s-40.16-6.56-52.56-19.69c-12.41-13.13-18.61-31.46-18.61-55ZM1570.98,211.39c0,13.22,2.44,23.63,7.33,31.24s12.58,11.41,23.09,11.41,18.51-3.85,23.5-11.54c4.98-7.7,7.47-18.15,7.47-31.37s-2.49-23.58-7.47-31.1c-4.98-7.51-12.81-11.27-23.5-11.27s-18.2,3.76-23.09,11.27c-4.89,7.52-7.33,17.97-7.33,31.37Z" fill="#1a2a3a"/>
    <path d="M1700,235.29v-94.8h40.2v87.73c0,8.88,1.54,15.21,4.62,19.01,3.08,3.8,7.97,5.7,14.67,5.7,8.33,0,15.39-2.89,21.19-8.69,2.71-2.72,4.79-5.61,6.25-8.69,1.45-3.08,2.17-6.88,2.17-11.41v-83.66h40.2v141.79h-39.39v-18.2c-11.77,15.03-26.53,22.54-44.28,22.54-15.21,0-26.62-4.43-34.22-13.31-7.61-8.87-11.41-21.55-11.41-38.03Z" fill="#1a2a3a"/>
    <path d="M1872.21,231.76v-59.76h-22.54v-31.51h22.54v-37.76h40.47v37.76h33.41v31.51h-33.41v61.39c0,5.98,1.36,10.64,4.07,13.99,2.72,3.35,6.97,5.03,12.77,5.03,3.08,0,5.93-.22,8.55-.68,2.62-.45,5.12-1.04,7.47-1.77l5.43,29.88c-5.07,1.63-10.14,2.89-15.21,3.8-5.07.9-10.78,1.36-17.11,1.36-17.57,0-29.7-4.52-36.4-13.58-6.7-9.05-10.05-22.27-10.05-39.66Z" fill="#1a2a3a"/>
  </g>
  <g>
    <path d="M249.83,55.38c-23.37-29.61-58.89-44.22-96.56-41.06-55.99,4.7-100.39,56.26-98.19,112.21,2.29,58.02,58.15,136.9,95.07,180.32,1,1.17,4.92,5.84,8.43,9.68,2.95,3.22,8.03,3.18,10.96-.07,21.41-23.8,41.44-49.98,58.63-76.9,35.31-55.29,68.7-124.58,21.67-184.18ZM210.04,167.06l3.91,26.85c.32,2.17-2.16,3.64-3.91,2.31l-20.45-15.43c-1.46-1.1-3.36-1.42-5.1-.85-6.7,2.18-13.9,3.27-21.39,3.03-32.84-1.05-59.54-27.87-60.44-60.71-.99-36.03,28.52-65.43,64.6-64.23,32.62,1.08,59.2,27.6,60.35,60.22.6,17.07-5.65,32.67-16.21,44.28-1.11,1.22-1.59,2.89-1.36,4.52Z" fill="#1a2a3a"/>
    <ellipse cx="164.01" cy="315.05" rx="109.01" ry="25.77" fill="none" stroke="#1a2a3a" stroke-miterlimit="10" stroke-width="7.69"/>
    <ellipse cx="164.01" cy="315.05" rx="101.87" ry="25.77" fill="none" stroke="#1a2a3a" stroke-miterlimit="10" stroke-width="7.44"/>
    <ellipse cx="164.01" cy="315.05" rx="94.82" ry="25.77" fill="none" stroke="#1a2a3a" stroke-miterlimit="10" stroke-width="7.18"/>
    <ellipse cx="164.01" cy="315.05" rx="90.6" ry="25.77" fill="none" stroke="#1a2a3a" stroke-miterlimit="10" stroke-width="7.01"/>
  </g>
</svg>